<?xml version="1.0"?><svg version="1.1" id="圖層_1" xmlns="http://www.w3.org/2000/svg" x="0" y="0" viewBox="0 0 100 100" xml:space="preserve"><path d="M54.308 21.124c3.819-6.951 10.598-9.837 18.27-12.48 2.514 1.899 3.473 4.342 1.869 7.627-6.72 2.421-12.945 4.199-16.875 10-2.108 3.113-3.689 6.545-4.735 10.113a38.23 38.23 0 0 0-1.161 5.372c-.268 1.888.282 4.078-1.812 4.867-1.069-3.668-.415-8.625.122-12.344.663-4.569 2.072-9.059 4.322-13.155z" fill="#66503a" stroke-width="3.5" stroke="#333" stroke-miterlimit="10"/><path d="M48.045 20.605c-5.452-6.449-14.505-9.632-22.793-8.015-.29 1.714.243 3.466.995 5.033C29.309 24 36.355 28.241 43.424 27.959c1.455-.058 2.952-.285 4.339.159 1.387.444 2.612 1.861 2.226 3.265 1.547-3.631.517-7.868-1.944-10.778z" fill="#009245" stroke-width="3.5" stroke="#333" stroke-miterlimit="10"/><path d="M79.491 34.641a21.347 21.347 0 0 0-6.287-3.619C62.766 27.145 50 37.355 50 37.355s-10.796-9.667-22.462-6.333C15.871 34.355 11.984 46.69 11.984 56.355s4.255 18.415 11.135 24.749c4.124 3.797 9.195 6.716 14.854 8.453A40.925 40.925 0 0 0 50 91.356c10.498 0 20.002-3.918 26.881-10.251s11.135-15.085 11.135-24.75c0-7.622-1.976-16.268-8.525-21.714z" stroke="#333" stroke-width="3.5" stroke-miterlimit="10" fill="#f54b38"/><metadata xmlns:d="https://loading.io/stock/">
<d:name>apple</d:name>
<d:tags>apple,fruit</d:tags>
<d:license>by</d:license>
<d:slug>4fpkd9</d:slug>
</metadata></svg>
