<?xml version="1.0"?><svg version="1.1" id="圖層_1" xmlns="http://www.w3.org/2000/svg" x="0" y="0" viewBox="0 0 100 100" xml:space="preserve"><path d="M74.049 8.919l-1.543.042c-3.228.093-6.642 1.045-10.145 2.83-2.74 1.38-5.503 3.285-8.447 5.825-5.091 4.398-8.959 8.873-12.545 14.511-3.578 5.696-6.555 11.602-8.848 17.557-1.236 3.275-2.196 6.354-2.935 9.411-.859 3.54-1.335 6.766-1.456 9.86l-.066 1.695 3.661.257.198-1.654c.651-5.431 2.37-11.206 5.256-17.659 2.433-5.513 5.513-10.955 9.155-16.177 2.763-3.964 5.946-7.048 9.32-10.317l.116-.112c.86-.833 1.73-1.677 2.594-2.537 3.596-3.503 8.525-7.779 14.77-9.769l1.427-.455-.512-3.308z" fill="#39b54a" stroke-width="3.5" stroke="#333" stroke-miterlimit="10"/><path d="M45.86 78.085c-1.815 9.54-10.725 14.455-20.218 12.649s-15.975-9.65-14.16-19.191 10.302-14.693 19.443-8.575C41.54 60.4 47.676 68.544 45.86 78.085z" fill="#c1272d" stroke="#333" stroke-width="3.5" stroke-miterlimit="10"/><path d="M71.221 67.762c-3.4-4.12-6.43-8.816-9.265-14.364-2.84-5.429-5.231-11.022-7.198-15.782l-.345-.818c-2.139-5.094-3.987-9.493-6.74-14.539-1.313-2.403-2.951-5.208-5.123-7.775-.472-.589-.984-1.113-1.506-1.646l-.666-.618c-.451-.402-.961-.858-1.528-1.231-1.732-1.213-3.451-1.892-5.11-2.019l-1.5-.114-.74 3.208 1.368.566c.974.404 1.886 1.076 2.799 2.066.742.774 1.446 1.724 2.283 3.074 1.256 2.054 2.442 4.344 3.844 7.422 1.315 2.922 2.723 5.568 4.1 8.158 1.13 2.125 2.298 4.322 3.425 6.696 2.266 4.759 5.017 10.358 8.246 15.816 3.618 5.997 7.058 10.587 10.826 14.444l1.178 1.204 2.715-2.458-1.063-1.29z" fill="#39b54a" stroke-width="3.5" stroke="#333" stroke-miterlimit="10"/><path d="M88.032 69.44c2.934 9.265-2.578 17.826-11.797 20.745s-18.654-.909-21.587-10.174c-2.934-9.265 2.092-17.834 13.05-16.789 8.128-7.303 17.4-3.046 20.334 6.218z" fill="#c1272d" stroke="#333" stroke-width="3.5" stroke-miterlimit="10"/><metadata xmlns:d="https://loading.io/stock/">
<d:name>cherry</d:name>
<d:tags>cherry,fruit,sakura</d:tags>
<d:license>by</d:license>
<d:slug>8yxgve</d:slug>
</metadata></svg>