<?xml version="1.0"?><svg version="1.1" id="圖層_1" xmlns="http://www.w3.org/2000/svg" x="0" y="0" viewBox="0 0 100 100" xml:space="preserve"><path d="M54.208 30.226c.18-7.797 4.841-15.334 11.737-18.977 1.202 1.064 1.835 2.633 2.203 4.195 1.497 6.359-1.109 13.493-6.354 17.389-1.079.802-2.287 1.507-3.026 2.63-.739 1.123-.799 2.852.293 3.637-3.218-1.712-4.934-5.356-4.853-8.874z" fill="#009245" stroke-width="3.5" stroke="#333" stroke-miterlimit="10"/><path d="M64.403 25.441c5.215-8.336 15.121-13.506 24.942-13.016.618 1.927.294 4.035-.313 5.966-2.471 7.858-9.89 13.913-18.083 14.76-1.686.174-3.45.161-4.974.903s-2.702 2.578-2.025 4.132c-2.385-3.929-1.9-8.984.453-12.745z" fill="#009245" stroke-width="3.5" stroke="#333" stroke-miterlimit="10"/><path d="M88.675 49.102a5.507 5.507 0 0 0-2.273-.65c-4.127-14.137-19.149-24.616-37.056-24.616-18.269 0-33.532 10.908-37.29 25.478C9.45 50.009 7.5 52.808 7.5 56.16c0 3.318 1.912 6.091 4.477 6.822 1.28 5.195 4.027 9.929 7.847 13.885C26.826 84.12 37.447 88.75 49.346 88.75c18.021 0 33.116-10.615 37.13-24.888 3.359-.24 6.024-3.592 6.024-7.703 0-3.157-1.574-5.861-3.825-7.057z" fill="#faac46" stroke="#333" stroke-width="3.5" stroke-miterlimit="10"/><metadata xmlns:d="https://loading.io/stock/">
<d:name>lemon</d:name>
<d:tags>lemon,fruit</d:tags>
<d:license>by</d:license>
<d:slug>vsnvqx</d:slug>
</metadata></svg>
