<?xml version="1.0"?><svg version="1.1" id="圖層_1" xmlns="http://www.w3.org/2000/svg" x="0" y="0" viewBox="0 0 100 100" xml:space="preserve"><path d="M81.713 27.198a12.711 12.711 0 0 0 2.65-1.874c.937-.868 1.774-1.922 2.038-3.172-5.23-3.341-12.277-3.607-17.744-.669-2.389 1.284-4.181 3.783-4.221 6.573-.103.187-.214.368-.299.567.079-.132.178-.241.287-.339 0 .014-.003.028-.002.042.002-.017.01-.032.012-.05.653-.574 1.766-.566 2.568-.13.94.51 1.581 1.421 2.289 2.223 3.442 3.897 9.273 5.484 14.215 3.87 1.214-.397 2.415-1.004 3.178-2.028-1.283-1.999-2.998-3.696-4.971-5.013z" fill="#009245" stroke-width="3.5" stroke="#333" stroke-miterlimit="10"/><path d="M62.735 33.509c1.794-10.129-2.683-18.338-8.256-26.984-4.067.025-7.012 1.811-8.062 6.442 4.795 7.683 9.613 14.32 8.862 23.346-.403 4.843-1.595 9.609-3.436 14.103a51.462 51.462 0 0 1-3.187 6.447c-1.261 2.158-3.589 3.998-2.124 6.428 4.049-2.967 7.41-8.595 9.883-12.853 3.039-5.234 5.263-10.961 6.32-16.929z" fill="#66503a" stroke-width="3.5" stroke="#333" stroke-miterlimit="10"/><path d="M82.36 50.6c-.105-.178-.201-.357-.315-.533-2.241-3.476-5.616-5.611-8.862-5.984-.372-5.188-4.688-9.284-9.97-9.284a9.953 9.953 0 0 0-5.715 1.799c-.524-5.034-4.779-8.959-9.951-8.959-.477 0-.942.045-1.401.109-1.264-4.383-5.297-7.593-10.087-7.593-5.802 0-10.505 4.703-10.505 10.505 0 2.936 1.208 5.588 3.15 7.495-6.765 1.686-11.336 6.961-10.31 12.105.577 2.896 2.816 5.146 5.887 6.381-4.769 3.272-7.084 8.631-5.264 13.171 1.145 2.858 3.704 4.812 6.863 5.646-.097.258-.199.513-.284.78-1.451 4.555-.769 9.165 1.441 12.366 1.218 1.765 2.894 3.107 4.947 3.761 5.779 1.841 12.289-2.393 14.541-9.459a16.25 16.25 0 0 0 .644-2.927c.765.2 1.564.316 2.392.316 3.839 0 7.138-2.277 8.644-5.55.183.141.365.283.554.411 1.94 1.31 4.182 1.956 6.492 1.688 5.019-.581 8.75-5.263 9.365-11.115 2.161.492 4.324.225 6.119-.933 4.078-2.629 4.749-8.886 1.625-14.196z" fill="#b47be0" stroke="#333" stroke-width="3.5" stroke-miterlimit="10"/><metadata xmlns:d="https://loading.io/stock/">
<d:name>grape</d:name>
<d:tags>grape,berry,fruit</d:tags>
<d:license>by</d:license>
<d:slug>liy6xk</d:slug>
</metadata></svg>