<?xml version="1.0"?><svg version="1.1" id="圖層_1" xmlns="http://www.w3.org/2000/svg" x="0" y="0" viewBox="0 0 100 100" xml:space="preserve"><g><path d="M54.526 47.041a3.188 3.188 0 0 1-3.157-2.784c-2.021-15.896 2.9-20.852 8.569-24.907a3.183 3.183 0 0 1 4.443.738 3.184 3.184 0 0 1-.738 4.443c-3.941 2.82-7.664 5.482-5.954 18.922a3.187 3.187 0 0 1-3.163 3.588z" fill="#8c6239" stroke-width="3.5" stroke="#333" stroke-miterlimit="10"/></g><g><path d="M81.807 27.407c-.192 0-.384-.016-.579-.052-17.573-3.228-29.191-11.922-34.552-16.817a3.183 3.183 0 0 1-.204-4.499 3.182 3.182 0 0 1 4.499-.204c4.858 4.435 15.397 12.314 31.406 15.254a3.184 3.184 0 0 1-.57 6.318z" fill="#8c6239" stroke-width="3.5" stroke="#333" stroke-miterlimit="10"/></g><path d="M78.524 40.969C72.017 32.775 61.663 27.474 50 27.474c-19.698 0-35.666 15.116-35.666 33.763 0 7.828 2.822 15.028 7.545 20.755C28.407 89.906 38.572 95 50 95c19.698 0 35.666-15.116 35.666-33.763 0-7.606-2.659-14.623-7.142-20.268z" stroke="#333" stroke-miterlimit="10" fill="#c4ff96" stroke-width="3.5"/><g><path d="M29.102 39.059c.17 1.329.147 2.621.055 3.901a33 33 0 0 1-.49 3.798 32.528 32.528 0 0 1-.924 3.716c-.38 1.225-.83 2.437-1.475 3.612-.173-1.329-.15-2.622-.058-3.901a33.238 33.238 0 0 1 1.42-7.513c.38-1.225.829-2.438 1.472-3.613z" fill="#333"/></g><g><path d="M34.832 35.652c.209 1.434.223 2.839.168 4.235a39.422 39.422 0 0 1-1.199 8.246c-.345 1.353-.761 2.696-1.374 4.01-.211-1.434-.226-2.84-.171-4.235a39.414 39.414 0 0 1 1.205-8.244c.346-1.355.761-2.698 1.371-4.012z" fill="#333"/></g><g><path d="M23.216 50.89c.999-.704 2.052-1.206 3.118-1.663 1.07-.444 2.16-.812 3.268-1.115a26.891 26.891 0 0 1 3.381-.701c1.15-.149 2.313-.25 3.531-.148-.998.706-2.051 1.21-3.118 1.665-1.07.444-2.16.812-3.268 1.113a27.503 27.503 0 0 1-3.381.698c-1.151.149-2.314.251-3.531.151z" fill="#333"/></g><g><path d="M24.725 44.988c.993-.826 2.06-1.456 3.145-2.041a31.164 31.164 0 0 1 3.348-1.511 30.498 30.498 0 0 1 3.501-1.11c1.198-.288 2.414-.53 3.706-.575-.992.828-2.059 1.459-3.144 2.044a30.307 30.307 0 0 1-3.349 1.508 30.963 30.963 0 0 1-3.502 1.107c-1.199.289-2.414.531-3.705.578z" fill="#333"/></g><metadata xmlns:d="https://loading.io/stock/">
<d:name>melon</d:name>
<d:tags>melon,fruit,honeydew,cantaloupe</d:tags>
<d:license>by</d:license>
<d:slug>rdywwz</d:slug>
</metadata></svg>
