<?xml version="1.0"?><svg version="1.1" id="圖層_1" xmlns="http://www.w3.org/2000/svg" x="0" y="0" viewBox="0 0 100 100" xml:space="preserve"><path d="M51.429 14.732c-3.455-4.925-9.674-7.764-15.659-7.149-.315 1.197-.05 2.475.383 3.635 1.763 4.722 6.491 8.182 11.524 8.436 1.036.052 2.113-.013 3.068.391.955.404 1.734 1.488 1.37 2.459 1.333-2.477.873-5.55-.686-7.772z" fill="#009245" stroke-width="3.5" stroke="#333" stroke-miterlimit="10"/><path d="M51.584 22.077c3.231-6.508 9.218-9.293 16.013-11.867 2.3 1.72 3.224 3.971 1.877 7.043-5.948 2.353-11.47 4.102-14.83 9.545-1.803 2.92-3.125 6.128-3.965 9.454a36.218 36.218 0 0 0-.894 5c-.189 1.755.362 3.777-1.49 4.543-1.055-3.385-.603-7.992-.222-11.449.467-4.248 1.607-8.435 3.511-12.269z" fill="#603813" stroke-width="3.5" stroke="#333" stroke-miterlimit="10"/><path d="M77.287 29.299a17.652 17.652 0 0 0-4.869-2.558c-14.563-5.008-22.403 3.232-22.403 3.232S45 22.164 31.176 24.846c-15.505 3.008-17.878 19-16.301 30.817 1.919 14.384 14.835 27.849 25.551 33.73 3.616 1.984 6.982 3.107 9.59 3.107 10.748 0 32.68-17.586 35.141-36.837 1.29-10.102-.489-20.842-7.87-26.364z" stroke="#333" stroke-width="3.5" stroke-miterlimit="10" fill="#ff7bac"/><path d="M43.988 34.554c-2.176 2.663-4.011 5.342-5.136 8.215-1.175 2.851-1.498 5.897-1.4 8.969.117 3.083.71 6.212 1.477 9.367.771 3.165 1.816 6.305 2.635 9.654a34.752 34.752 0 0 1-5.517-8.66c-1.372-3.172-2.338-6.619-2.469-10.227-.128-3.579.606-7.373 2.559-10.468a17.552 17.552 0 0 1 7.851-6.85z" fill="#333"/><metadata xmlns:d="https://loading.io/stock/">
<d:name>peach</d:name>
<d:tags>peach,fruit</d:tags>
<d:license>by</d:license>
<d:slug>8728hd</d:slug>
</metadata></svg>