<?xml version="1.0"?><svg version="1.1" id="圖層_1" xmlns="http://www.w3.org/2000/svg" x="0" y="0" viewBox="0 0 100 100" xml:space="preserve"><path d="M52.007 18.449C49.144 11.138 43.306 7.955 36.649 5c-2.402 1.897-3.457 4.402-2.284 7.852 5.823 2.699 11.253 4.718 14.307 10.841 1.639 3.285 2.779 6.887 3.43 10.614a44.21 44.21 0 0 1 .609 5.6c.089 1.964-.579 4.218 1.232 5.096 1.251-3.772 1.062-8.927.878-12.796-.225-4.756-1.127-9.45-2.814-13.758z" fill="#603813" stroke-width="3.5" stroke="#333" stroke-miterlimit="10"/><path d="M54.551 13.537c3.996-4.726 10.63-7.059 16.705-5.874.212 1.256-.178 2.54-.729 3.688-2.243 4.674-7.408 7.782-12.588 7.576-1.066-.043-2.164-.209-3.18.117s-1.914 1.364-1.631 2.393c-1.136-2.662-.38-5.768 1.423-7.9z" fill="#009245" stroke-width="3.5" stroke="#333" stroke-miterlimit="10"/><path d="M75.646 62.609a24.352 24.352 0 0 0-3.974-5.932c-3.042-3.346-4.793-7.649-4.709-12.17.004-.209.006-.418.006-.628 0-13.128-7.558-20.907-16.969-20.907S32.888 30.75 32.888 43.878c0 .278.003.555.01.831.11 4.48-1.668 8.741-4.665 12.074-3.808 4.235-6.086 9.604-6.086 15.449 0 4.565 1.394 8.614 3.815 11.99C30.799 90.961 39.75 95 50 95c15.382 0 27.852-9.087 27.852-22.769 0-3.417-.799-6.662-2.206-9.622z" stroke="#333" stroke-miterlimit="10" fill="#8cc63f" stroke-width="3.5"/><metadata xmlns:d="https://loading.io/stock/">
<d:name>pear</d:name>
<d:tags>pear,guava,fruit</d:tags>
<d:license>by</d:license>
<d:slug>5y9d5x</d:slug>
</metadata></svg>