<?xml version="1.0"?><svg version="1.1" id="圖層_1" xmlns="http://www.w3.org/2000/svg" x="0" y="0" viewBox="0 0 100 100" xml:space="preserve"><path d="M77.434 35.505c-4.157-4.488-9.643-7.22-15.66-7.22-4.857 0-9.369 1.779-13.115 4.825-3.746-3.046-8.258-4.825-13.115-4.825-12.979 0-23.5 12.696-23.5 28.357C12.043 72.304 22.565 85 35.543 85c4.857 0 13.115-3.29 13.115-3.29s3.307 1.316 6.966 2.283c2.124.562 4.366 1.007 6.15 1.007 12.979 0 23.5-12.696 23.5-28.357 0-8.401-3.03-15.946-7.84-21.138z" stroke="#333" stroke-width="3.5" stroke-miterlimit="10" fill="#d96d6d"/><path d="M70.71 22.735l-18.069 1.856c.955-3.165 2.903-6.062 5.527-8.007a3 3 0 1 0-3.572-4.82c-4.249 3.148-7.169 7.9-8.198 13.051-5.435-.54-18.355-2.08-18.355-2.08l13 9.551s-4.051 11.996-2.692 12.522 10.308-7.367 10.308-7.367l10.718 7.392-2.333-12.547 13.666-9.551z" stroke-linejoin="round" fill="#009245" stroke="#333" stroke-width="3.5" stroke-miterlimit="10"/><metadata xmlns:d="https://loading.io/stock/">
<d:name>tomato</d:name>
<d:tags>tomato,fruit</d:tags>
<d:license>by</d:license>
<d:slug>dj1omn</d:slug>
</metadata></svg>