<?xml version="1.0"?><svg version="1.1" id="圖層_1" xmlns="http://www.w3.org/2000/svg" x="0" y="0" viewBox="0 0 100 100" xml:space="preserve"><path d="M70.431 18.982c-2.949-.357-5.982-.675-8.919-.407a20.65 20.65 0 0 1 1.35-.951c2.156-1.38 4.405-2.706 6.78-2.794-1.314-1.471-3.088-1.817-4.766-2.098-2.347-.393-4.768-.747-7.087-.312a15.146 15.146 0 0 1 1.96-2.008c1.617-1.38 3.304-2.706 5.085-2.794-.986-1.473-2.316-1.818-3.574-2.1-2.41-.538-4.928-1.02-7.206.527-1.666 1.131-3.644 4.705-3.644 4.705s-2.02-3.374-3.644-4.476c-2.279-1.546-4.796-1.065-7.206-.527-1.26.281-2.59.627-3.575 2.098 1.781.088 3.468 1.415 5.085 2.794a15.207 15.207 0 0 1 1.96 2.008c-2.319-.435-4.741-.081-7.087.312-1.678.281-3.452.626-4.766 2.098 2.374.088 4.624 1.415 6.78 2.794.441.282.896.606 1.35.951-2.937-.267-5.97.05-8.919.407-2.322.281-4.777.626-6.595 2.098 3.286.088 6.399 1.415 9.383 2.794 3.365 1.556 7.327 4.033 8.308 7.773 3.088-.449 6.177-1.278 9.237-1.947.005-.029.005-.057.009-.086 2.855.641 5.731 1.385 8.608 1.804.981-3.74 4.942-6.217 8.308-7.773 2.983-1.38 6.097-2.706 9.383-2.794-1.821-1.47-4.275-1.815-6.598-2.096z" fill="#39b54a" stroke-width="3.5" stroke="#333" stroke-miterlimit="10"/><path d="M66.156 33.725c-4.58-3.884-10.082-6.166-16.156-6.166-17.172 0-29.811 18.178-29.811 39.51 0 6.939 1.344 12.31 3.739 16.411C28.897 91.988 38.413 95 50 95c17.172 0 29.811-6.598 29.811-27.93 0-13.788-5.284-26.249-13.655-33.345z" stroke="#333" stroke-miterlimit="10" fill="#fbb03b" stroke-width="3.5"/><path d="M28.259 70.49c1.448 2.323 3.448 3.76 5.657 3.76 1.608 0 3.103-.763 4.356-2.073.841-.879 1.899-.879 2.74 0 1.253 1.31 2.748 2.073 4.356 2.073 1.598 0 3.086-.752 4.335-2.047.792-.821 1.805-.821 2.598 0 1.249 1.295 2.737 2.047 4.335 2.047 2.101 0 4.012-1.299 5.439-3.423" stroke="#333" stroke-miterlimit="10" fill="none" stroke-width="3" stroke-linecap="round"/><path d="M29.259 58.61c1.352 2.323 3.219 3.76 5.282 3.76 1.501 0 2.897-.763 4.067-2.073.785-.879 1.773-.879 2.558 0 1.17 1.31 2.566 2.073 4.067 2.073 1.492 0 2.881-.752 4.047-2.047.74-.821 1.686-.821 2.425 0 1.166 1.295 2.555 2.047 4.047 2.047 1.961 0 3.746-1.299 5.079-3.423" stroke-linecap="round" fill="none" stroke-width="2.899" stroke="#333" stroke-miterlimit="10"/><metadata xmlns:d="https://loading.io/stock/">
<d:name>pineapple</d:name>
<d:tags>pineapple,fruit</d:tags>
<d:license>by</d:license>
<d:slug>4o93jw</d:slug>
</metadata></svg>