<?xml version="1.0"?><svg version="1.1" id="圖層_1" xmlns="http://www.w3.org/2000/svg" x="0" y="0" viewBox="0 0 100 100" xml:space="preserve"><path d="M63.491 28.019a5.881 5.881 0 0 1 3.485-3.428c.79-.281 1.632-.388 2.422-.668 1.483-.526 2.684-1.62 3.818-2.711a114.648 114.648 0 0 0 3.463-3.476c-1.054 2.439-1.443 5.103-2.123 7.672-.68 2.568-1.734 5.168-3.764 6.882-3.823 3.227-9.345 1.19-7.301-4.271z" stroke-linejoin="round" fill="#849b87" stroke="#333" stroke-width="3.5" stroke-miterlimit="10"/><path d="M72.372 37.866c2.556-.451 4.948-1.542 7.309-2.622l7.935-3.633c-3.841.663-7.737 1.329-11.616.958-2.409-.23-4.776-.859-7.194-.929a15.747 15.747 0 0 0-8.071 1.971c3.852 2.584 6.68 5.123 11.637 4.255z" stroke-linejoin="round" fill="#849b87" stroke="#333" stroke-width="3.5" stroke-miterlimit="10"/><path d="M72.39 44.982a33.333 33.333 0 0 0 12.294 4.234c1.403.19 2.845.289 4.223-.035-2.774-3.292-5.64-6.659-9.418-8.722-2.538-1.386-5.372-2.117-8.076-3.141-2.045-.775-3.928-1.808-5.875-2.776.125 4.674 2.886 8.124 6.852 10.44z" stroke-linejoin="round" fill="#849b87" stroke="#333" stroke-width="3.5" stroke-miterlimit="10"/><path d="M60.618 25.747c.888-2.439 2.377-4.606 3.851-6.743l4.954-7.184c-1.32 3.667-2.651 7.388-2.959 11.273-.191 2.412.017 4.852-.334 7.246a15.744 15.744 0 0 1-3.341 7.606c-1.876-4.241-3.885-7.466-2.171-12.198z" stroke-linejoin="round" fill="#849b87" stroke="#333" stroke-width="3.5" stroke-miterlimit="10"/><path d="M53.613 24.495a33.353 33.353 0 0 1-2.037-12.842c.056-1.415.209-2.852.767-4.153 2.76 3.304 5.579 6.709 6.956 10.788.925 2.74 1.153 5.658 1.692 8.498.408 2.148 1.099 4.182 1.715 6.268-4.581-.934-7.5-4.251-9.093-8.559z" stroke-linejoin="round" fill="#849b87" stroke="#333" stroke-width="3.5" stroke-miterlimit="10"/><path d="M14.598 51.705c-.97 3.805-1.468 7.712-1.964 11.607-.841 6.611-1.684 13.251-1.521 19.913.048 1.955.232 4.045 1.449 5.576 1.34 1.684 3.6 2.287 5.716 2.678 11.011 2.038 22.574 1.008 33.051-2.945 7.887-2.975 15.305-7.729 20.21-14.585s7.004-15.986 4.293-23.968c-1.126-3.316-3.015-6.326-5.148-9.104-3.021-3.934-6.6-7.496-10.847-10.058-6.062-3.657-15.37-5.698-22.448-4.278-7.493 1.504-13.773 7.188-17.764 13.466-2.284 3.596-3.975 7.573-5.027 11.698z" fill="#e15b64" stroke-width="3.5" stroke="#333" stroke-miterlimit="10"/><ellipse transform="rotate(-61.654 50 35.355)" cx="50" cy="35.355" rx="2.562" ry="1.465" fill="#f5e6c8"/><ellipse transform="rotate(-41.15 22.944 70.909)" cx="22.943" cy="70.905" rx="1.465" ry="2.562" fill="#f5e6c8"/><ellipse transform="rotate(-59.584 50.04 56.6)" cx="50.042" cy="56.602" rx="2.562" ry="1.465" fill="#f5e6c8"/><ellipse transform="rotate(-75.09 21.78 47.71)" cx="21.781" cy="47.709" rx="1.465" ry="2.562" fill="#f5e6c8"/><ellipse transform="rotate(-32.085 65.532 70.44)" cx="65.538" cy="70.445" rx="2.562" ry="1.465" fill="#f5e6c8"/><ellipse transform="rotate(-45.466 66.316 55.947)" cx="66.313" cy="55.945" rx="2.562" ry="1.465" fill="#f5e6c8"/><ellipse transform="rotate(-47.354 24.086 57.03)" cx="24.087" cy="57.032" rx="2.562" ry="1.465" fill="#f5e6c8"/><ellipse transform="rotate(-32.637 29.649 64.194)" cx="29.654" cy="64.198" rx="2.562" ry="1.465" fill="#f5e6c8"/><ellipse transform="rotate(-45.13 40.602 30.35)" cx="40.604" cy="30.35" rx="1.465" ry="2.562" fill="#f5e6c8"/><ellipse transform="rotate(-77.667 41.63 84.964)" cx="41.628" cy="84.962" rx="2.562" ry="1.465" fill="#f5e6c8"/><ellipse transform="rotate(-32.135 31.663 88.117)" cx="31.665" cy="88.119" rx="2.562" ry="1.465" fill="#f5e6c8"/><ellipse transform="rotate(-6.136 32.67 37.214)" cx="32.673" cy="37.218" rx="1.465" ry="2.562" fill="#f5e6c8"/><ellipse transform="rotate(-38.059 36.945 76.435)" cx="36.949" cy="76.44" rx="1.465" ry="2.562" fill="#f5e6c8"/><ellipse transform="rotate(-51.222 35.285 44.868)" cx="35.288" cy="44.87" rx="1.465" ry="2.562" fill="#f5e6c8"/><ellipse transform="rotate(-40.217 52.004 76.438)" cx="52.005" cy="76.44" rx="1.465" ry="2.562" fill="#f5e6c8"/><ellipse transform="rotate(-37.627 48.224 68.958)" cx="48.225" cy="68.957" rx="2.562" ry="1.465" fill="#f5e6c8"/><ellipse transform="rotate(-23.205 47.24 48.606)" cx="47.235" cy="48.6" rx="2.562" ry="1.465" fill="#f5e6c8"/><ellipse transform="rotate(-57.704 41.63 63.576)" cx="41.628" cy="63.576" rx="2.562" ry="1.465" fill="#f5e6c8"/><ellipse transform="rotate(-45.917 58.319 64.201)" cx="58.319" cy="64.198" rx="2.562" ry="1.465" fill="#f5e6c8"/><ellipse transform="rotate(-60.184 64.699 43.284)" cx="64.695" cy="43.283" rx="1.465" ry="2.562" fill="#f5e6c8"/><ellipse transform="rotate(-28 36.182 53.334)" cx="36.185" cy="53.338" rx="1.465" ry="2.562" fill="#f5e6c8"/><ellipse transform="rotate(-74.235 16.546 79.076)" cx="16.544" cy="79.075" rx="1.465" ry="2.562" fill="#f5e6c8"/><ellipse transform="rotate(-81.49 57.13 49.391)" cx="57.128" cy="49.392" rx="2.562" ry="1.465" fill="#f5e6c8"/><ellipse transform="rotate(-17.668 26.572 82.295)" cx="26.569" cy="82.289" rx="2.562" ry="1.465" fill="#f5e6c8"/><ellipse transform="rotate(-46.783 17.472 65.52)" cx="17.472" cy="65.522" rx="2.562" ry="1.465" fill="#f5e6c8"/><metadata xmlns:d="https://loading.io/stock/">
<d:name>strawberry</d:name>
<d:tags>strawberry,fruit</d:tags>
<d:license>by</d:license>
<d:slug>g211gm</d:slug>
</metadata></svg>